RBDS025runT35_grf
version=1
nRows=15
nColumns=19
inDegrees=no
endheader
time	ground_force_r_vx	ground_force_r_vy	ground_force_r_vz	ground_force_r_px	ground_force_r_py	ground_force_r_pz	ground_force_r_mx	ground_force_r_my	ground_force_r_mz	ground_force_l_vx	ground_force_l_vy	ground_force_l_vz	ground_force_l_px	ground_force_l_py	ground_force_l_pz	ground_force_l_mx	ground_force_l_my	ground_force_l_mz
     14.99900000	      0.00000000	      0.00000000	      0.00000000	      0.00000000	      0.00000000	      0.00000000	      0.00000000	      0.00000000	      0.00000000	     69.26499717	    160.57502042	     -5.89783116	      1.90937180	      0.00000000	      0.87108100	      0.00000000	      4.49710064	     -0.00000000
     15.00000000	      0.00000000	      0.00000000	      0.00000000	      0.00000000	      0.00000000	      0.00000000	      0.00000000	      0.00000000	      0.00000000	     66.25406609	    148.49175085	     -5.56113518	      1.90880611	      0.00000000	      0.87071318	      0.00000000	      4.54936504	     -0.00000000
     15.00100000	      0.00000000	      0.00000000	      0.00000000	      0.00000000	      0.00000000	      0.00000000	      0.00000000	      0.00000000	      0.00000000	     63.36245072	    137.63203132	     -5.23464085	      1.90838250	      0.00000000	      0.87035144	      0.00000000	      4.61550178	     -0.00000000
     15.00200000	      0.00000000	      0.00000000	      0.00000000	      0.00000000	      0.00000000	      0.00000000	      0.00000000	      0.00000000	      0.00000000	     60.47083535	    126.77231178	     -4.90814653	      1.90795889	      0.00000000	      0.86998971	      0.00000000	      4.68163851	     -0.00000000
     15.00300000	      0.00000000	      0.00000000	      0.00000000	      0.00000000	      0.00000000	      0.00000000	      0.00000000	      0.00000000	      0.00000000	     57.57921998	    115.91259225	     -4.58165221	      1.90753528	      0.00000000	      0.86962798	     -0.00000000	      4.74777525	     -0.00000000
     15.00400000	      0.00000000	      0.00000000	      0.00000000	      0.00000000	      0.00000000	      0.00000000	      0.00000000	      0.00000000	      0.00000000	     54.79923358	    105.86541586	     -4.26705645	      1.90719302	      0.00000000	      0.86927488	     -0.00000000	      4.82087145	     -0.00000000
     15.00500000	      0.00000000	      0.00000000	      0.00000000	      0.00000000	      0.00000000	      0.00000000	      0.00000000	      0.00000000	      0.00000000	     52.07506167	     96.22451104	     -3.95840997	      1.90689142	      0.00000000	      0.86892609	     -0.00000000	      4.89744739	     -0.00000000
     15.00600000	      0.00000000	      0.00000000	      0.00000000	      0.00000000	      0.00000000	      0.00000000	      0.00000000	      0.00000000	      0.00000000	     49.35088976	     86.58360622	     -3.64976349	      1.90658983	      0.00000000	      0.86857731	     -0.00000000	      4.97402333	     -0.00000000
     15.00700000	      0.00000000	      0.00000000	      0.00000000	      0.00000000	      0.00000000	      0.00000000	      0.00000000	      0.00000000	      0.00000000	     46.69587002	     77.34124547	     -3.34907226	      1.90632205	      0.00000000	      0.86823493	     -0.00000000	      5.05282821	     -0.00000000
     15.00800000	      0.00000000	      0.00000000	      0.00000000	      0.00000000	      0.00000000	      0.00000000	      0.00000000	      0.00000000	      0.00000000	     44.17915463	     68.89597287	     -3.06429153	      1.90612190	      0.00000000	      0.86790539	     -0.00000000	      5.13609100	     -0.00000000
     15.00900000	      0.00000000	      0.00000000	      0.00000000	      0.00000000	      0.00000000	      0.00000000	      0.00000000	      0.00000000	      0.00000000	     41.66243923	     60.45070026	     -2.77951081	      1.90592175	      0.00000000	      0.86757584	     -0.00000000	      5.21935380	     -0.00000000
     15.01000000	      0.00000000	      0.00000000	      0.00000000	      0.00000000	      0.00000000	      0.00000000	      0.00000000	      0.00000000	      0.00000000	     39.14572384	     52.00542765	     -2.49473008	      1.90572160	      0.00000000	      0.86724630	     -0.00000000	      5.30261659	     -0.00000000
     15.01100000	      0.00000000	      0.00000000	      0.00000000	      0.00000000	      0.00000000	      0.00000000	      0.00000000	      0.00000000	      0.00000000	     36.86748568	     44.71549775	     -2.23818673	      1.90560260	      0.00000000	      0.86694148	     -0.00000000	      5.38871206	     -0.00000000
     15.01200000	      0.00000000	      0.00000000	      0.00000000	      0.00000000	      0.00000000	      0.00000000	      0.00000000	      0.00000000	      0.00000000	     34.58924753	     37.42556786	     -1.98164337	      1.90548360	      0.00000000	      0.86663667	     -0.00000000	      5.47480753	     -0.00000000
     15.01300000	      0.00000000	      0.00000000	      0.00000000	      0.00000000	      0.00000000	      0.00000000	      0.00000000	      0.00000000	      0.00000000	     32.31100937	     30.13563796	     -1.72510002	      1.90536460	      0.00000000	      0.86633185	     -0.00000000	      5.56090300	     -0.00000000
